<?xml version="1.0" standalone="no"?>
<!DOCTYPE svg PUBLIC "-//W3C//DTD SVG 20010904//EN"
 "http://www.w3.org/TR/2001/REC-SVG-20010904/DTD/svg10.dtd">
<svg version="1.0" xmlns="http://www.w3.org/2000/svg"
 width="961.000000pt" height="961.000000pt" viewBox="0 0 961.000000 961.000000"
 preserveAspectRatio="xMidYMid meet">
<metadata>
Created by potrace 1.11, written by Peter Selinger 2001-2013
</metadata>
<g transform="translate(0.000000,961.000000) scale(0.100000,-0.100000)"
fill="#000000" stroke="none">
<path d="M0 9310 l0 -300 30 0 c28 0 30 2 30 40 l0 40 73 0 c68 0 75 -2 85
-24 7 -15 22 -26 41 -30 17 -3 44 -9 60 -12 31 -5 81 -60 81 -88 0 -10 13 -16
43 -18 37 -3 42 -6 45 -30 2 -18 13 -31 37 -42 18 -9 38 -16 44 -16 6 0 11 -4
11 -9 0 -5 13 -14 28 -19 16 -5 44 -23 63 -39 19 -16 42 -32 52 -36 9 -4 25
-22 34 -42 11 -23 26 -38 43 -42 14 -3 39 -16 55 -28 17 -13 46 -30 65 -40 19
-9 62 -45 95 -79 33 -34 74 -69 92 -77 22 -9 34 -23 39 -41 3 -16 11 -28 18
-28 8 0 25 -9 39 -20 14 -11 34 -20 46 -20 13 0 27 -12 37 -32 9 -18 23 -38
30 -46 8 -7 14 -17 14 -21 0 -4 16 -15 35 -24 19 -9 35 -22 35 -28 0 -13 25
-39 38 -39 6 0 12 -7 16 -15 3 -8 17 -15 32 -15 15 0 42 -11 60 -25 18 -14 36
-25 40 -25 4 0 14 -7 23 -15 28 -27 93 -75 102 -75 4 0 28 -20 52 -45 25 -25
54 -45 66 -45 16 0 21 -6 21 -25 0 -21 5 -25 29 -25 16 0 31 -6 35 -15 3 -8
11 -15 18 -15 18 -1 58 -67 58 -96 0 -41 18 -64 49 -64 16 0 34 -7 41 -15 7
-8 22 -15 34 -15 55 0 66 -10 66 -56 0 -40 2 -44 24 -44 13 0 26 -7 30 -15 3
-8 12 -15 19 -15 8 0 23 -11 33 -25 10 -14 27 -25 36 -25 10 0 18 -4 18 -9 0
-5 10 -13 22 -17 28 -9 48 -28 48 -48 0 -13 13 -16 75 -16 l75 0 0 -65 0 -65
70 0 c39 0 70 -4 70 -8 0 -4 15 -12 33 -17 25 -8 33 -16 35 -37 3 -27 6 -28
58 -28 l54 0 0 -75 c0 -68 -2 -75 -20 -75 -13 0 -20 -7 -20 -20 0 -18 -7 -20
-80 -20 -79 0 -80 0 -80 25 0 23 -3 25 -49 25 -39 0 -56 5 -77 25 -21 19 -38
25 -74 25 -26 0 -61 7 -78 16 -31 15 -32 18 -32 75 l0 59 -43 0 c-56 0 -140
42 -237 120 -14 11 -28 20 -32 20 -7 0 -54 34 -113 81 -28 22 -75 71 -130 132
-27 31 -55 57 -62 57 -6 0 -15 10 -19 22 -8 25 -28 48 -43 48 -5 0 -36 18 -68
41 -32 22 -68 45 -80 50 -13 5 -23 13 -23 18 0 5 -10 13 -22 17 -12 4 -30 17
-40 29 -10 13 -30 26 -45 30 -48 11 -117 49 -138 75 -11 13 -29 31 -39 40 -11
8 -33 27 -49 43 -16 15 -35 27 -43 27 -7 0 -16 11 -20 25 -4 16 -13 25 -25 25
-10 0 -19 4 -19 8 0 14 -45 62 -58 62 -7 0 -12 3 -12 8 0 4 -11 20 -25 36 -14
16 -25 33 -25 37 0 11 -88 69 -106 69 -7 0 -14 3 -14 8 0 8 -42 28 -82 37 -14
4 -28 15 -31 26 -3 12 -14 19 -30 19 -13 0 -32 9 -42 20 -10 11 -23 20 -29 20
-7 0 -28 15 -48 33 -20 17 -43 37 -50 42 -78 59 -89 65 -124 65 -24 0 -46 7
-59 20 -11 11 -53 26 -93 35 -92 19 -132 19 -132 1 0 -18 -22 -26 -76 -26
l-44 0 0 -1810 0 -1809 62 -3 c56 -3 63 -5 79 -33 12 -21 18 -53 18 -102 l1
-73 -80 0 -80 0 0 -745 0 -745 75 0 c62 0 81 -4 105 -22 17 -12 30 -30 30 -40
0 -10 5 -18 10 -18 6 0 10 -34 10 -81 l0 -81 37 6 c83 15 195 27 343 38 85 6
158 15 161 20 3 4 86 11 184 16 l179 7 -77 78 -77 79 0 74 0 74 35 0 c35 0 35
0 35 45 0 44 -1 45 -32 45 -51 0 -60 11 -65 84 -5 56 -9 66 -24 66 -16 0 -19
8 -19 60 0 33 -4 60 -10 60 -5 0 -10 -11 -10 -25 0 -25 -1 -25 -81 -25 l-81 0
4 83 c4 113 17 127 113 127 63 0 71 2 80 23 9 20 18 22 88 25 l79 3 -4 -106
-3 -105 33 0 32 0 0 -90 c0 -67 3 -90 13 -90 24 0 37 23 37 65 l0 42 51 11
c28 7 84 12 125 12 l74 0 0 -50 0 -50 70 0 70 0 0 -45 0 -45 44 0 c78 0 106
-10 106 -36 0 -13 6 -24 13 -24 6 0 21 -19 32 -41 11 -23 31 -46 45 -53 35
-15 37 -18 50 -122 10 -81 15 -98 41 -125 16 -17 29 -39 29 -48 0 -10 11 -28
25 -41 14 -13 25 -34 25 -47 0 -13 7 -26 15 -29 8 -4 15 -17 15 -30 0 -17 6
-24 20 -24 16 0 20 -7 20 -34 0 -18 7 -39 15 -46 16 -13 21 -110 9 -183 l-7
-37 -73 0 c-69 0 -74 2 -93 29 -12 16 -21 44 -21 61 0 31 -43 115 -76 147 -8
8 -14 19 -14 24 0 5 -9 18 -20 29 -12 12 -20 33 -20 53 0 55 -10 77 -35 77
-13 0 -42 11 -66 24 -24 14 -46 23 -51 20 -4 -3 -8 -23 -8 -45 0 -21 -4 -39
-9 -39 -8 0 -13 -39 -30 -220 -4 -47 -13 -95 -19 -107 -7 -13 -12 -66 -12
-132 l0 -111 84 0 c67 0 85 -3 90 -16 10 -26 7 -134 -6 -196 l-12 -58 -78 0
-78 0 0 125 c0 118 -1 125 -20 125 -11 0 -20 -6 -20 -14 0 -8 -9 -18 -21 -21
-30 -10 -59 -37 -59 -55 0 -35 -34 -156 -47 -163 -9 -5 -13 -30 -13 -72 l0
-65 -30 0 c-23 0 -30 -5 -30 -19 0 -11 -6 -22 -13 -24 -6 -3 -2 -6 11 -6 23
-1 23 -3 19 -88 -4 -89 -33 -223 -49 -223 -4 0 -8 -13 -8 -30 l0 -30 -60 0
c-53 0 -60 -2 -60 -20 0 -11 -4 -20 -9 -20 -12 0 -31 -112 -31 -178 0 -49 -2
-52 -25 -52 -29 0 -29 -3 -26 -145 2 -49 -2 -102 -8 -117 -9 -24 -16 -28 -51
-28 l-40 0 0 -49 c0 -27 -4 -61 -10 -75 -9 -25 -13 -26 -85 -26 l-75 0 0 47
c0 27 -4 43 -9 37 -5 -5 -11 -89 -15 -186 l-6 -178 55 0 c54 0 55 0 55 -30 0
-28 1 -29 58 -32 l57 -3 3 -76 c3 -75 2 -77 -23 -83 -16 -4 -25 -13 -25 -27 0
-11 -7 -22 -15 -25 -8 -4 -15 -12 -15 -19 0 -10 -9 -24 -50 -72 -5 -7 -10 -24
-10 -38 0 -14 -4 -25 -10 -25 -5 0 -13 -18 -16 -39 -6 -37 -8 -39 -50 -46 -32
-4 -44 -11 -44 -23 0 -9 -3 -27 -6 -39 l-6 -23 751 0 751 0 0 45 0 45 59 0
c33 0 63 5 66 10 3 6 16 10 28 10 13 0 26 9 32 22 9 20 19 23 80 26 39 2 98 0
133 -3 l62 -7 0 -74 0 -74 30 0 c27 0 30 3 30 34 0 25 -6 38 -25 50 -23 15
-25 23 -25 91 l0 75 77 0 c71 0 79 -2 100 -27 13 -14 23 -30 23 -35 0 -4 7 -8
15 -8 12 0 15 18 15 99 0 141 8 191 31 191 11 0 19 6 19 14 0 7 9 16 19 19 15
4 21 17 26 63 9 68 20 94 40 94 11 0 15 13 15 48 0 90 3 92 84 92 97 0 101 -7
94 -167 -4 -95 -9 -126 -27 -158 -11 -22 -21 -50 -21 -62 0 -14 -6 -23 -15
-23 -12 0 -15 -13 -15 -60 0 -49 -3 -62 -17 -67 -23 -8 -33 -23 -33 -48 -1
-26 -33 -65 -54 -65 -13 0 -16 -11 -16 -52 0 -29 -3 -63 -6 -76 l-6 -22 176 0
176 0 0 40 0 40 75 0 75 0 0 -40 0 -40 670 0 670 0 0 55 c0 48 2 55 20 55 11
0 20 7 20 15 0 12 16 15 80 15 l80 0 0 -70 0 -70 540 0 539 0 3 88 3 87 40 3
40 3 0 97 0 97 63 3 62 3 0 59 c0 53 -2 59 -22 62 -17 2 -24 11 -26 31 -3 25
-6 27 -53 27 l-49 0 0 110 0 110 69 0 c49 0 74 5 85 15 9 9 34 15 65 15 l51 0
0 60 c0 46 3 60 15 60 8 0 17 11 21 25 6 25 8 26 88 23 l81 -3 3 -32 3 -33
105 0 104 0 0 -45 c0 -25 5 -45 10 -45 6 0 10 -32 10 -77 l0 -76 -120 6 c-98
5 -120 3 -120 -8 0 -9 -20 -15 -67 -20 -100 -9 -123 -15 -123 -31 0 -8 7 -14
15 -14 13 0 15 -24 15 -155 l0 -155 -60 0 c-47 0 -60 -3 -60 -15 0 -8 5 -15
10 -15 15 0 13 -163 -2 -178 -7 -7 -31 -12 -55 -12 -42 0 -43 0 -43 -35 l0
-35 355 0 355 0 0 66 0 66 125 -4 c141 -3 135 -7 135 85 l0 47 116 0 c107 0
116 -1 121 -20 3 -11 12 -20 19 -20 10 0 14 -15 14 -55 0 -47 3 -55 19 -55 23
0 31 -19 31 -71 l0 -39 425 0 425 0 0 70 0 70 69 0 c103 0 131 -8 131 -36 0
-13 5 -24 10 -24 6 0 10 -18 10 -40 l0 -40 308 0 308 0 -4 90 -4 90 76 0 c61
0 76 -3 76 -15 0 -8 5 -15 10 -15 6 0 10 -32 10 -75 l0 -75 80 0 80 0 0 170 0
170 -45 0 -45 0 0 70 c0 43 -4 70 -11 70 -18 0 -39 -28 -39 -52 0 -14 -13 -35
-31 -51 -34 -30 -57 -32 -206 -20 -60 4 -83 10 -83 19 0 8 -4 14 -10 14 -15 0
-13 150 3 150 6 0 44 5 84 10 75 10 113 26 113 47 0 7 7 13 15 13 8 0 15 9 15
20 0 18 7 20 80 20 l80 0 0 -75 0 -75 40 0 40 0 0 271 c0 243 -2 271 -16 265
-9 -3 -18 -6 -20 -6 -2 0 -4 -9 -4 -20 0 -19 -7 -20 -107 -20 -63 0 -131 6
-163 15 -30 8 -76 15 -102 15 l-48 0 0 81 0 81 135 -4 c74 -1 135 0 135 4 0 4
-9 12 -20 18 -14 8 -20 21 -20 45 0 30 -3 35 -23 35 -13 0 -35 6 -50 13 -25
11 -27 16 -27 83 0 52 4 75 15 84 8 7 15 19 15 26 0 10 13 14 45 14 43 0 45 1
45 30 l0 30 75 0 75 0 0 -75 0 -75 -35 0 c-24 0 -35 -5 -35 -14 0 -11 15 -16
53 -18 l52 -3 3 -37 c2 -21 7 -38 13 -38 5 0 9 61 9 145 l0 145 -41 0 c-64 0
-109 30 -109 74 0 19 -7 27 -25 32 -14 3 -25 10 -25 15 0 5 -8 9 -19 9 -13 0
-20 9 -25 30 -3 19 -14 34 -28 39 -13 6 -43 33 -68 61 -108 124 -146 162 -177
177 -18 8 -33 22 -33 31 0 15 -76 92 -92 92 -4 0 -8 7 -8 15 0 8 -6 15 -12 15
-7 0 -22 14 -33 31 -11 17 -27 34 -36 37 -18 8 -169 179 -192 218 -4 8 -13 14
-19 14 -17 0 -92 85 -117 132 -7 14 -25 32 -40 39 -42 22 -81 70 -81 101 0 19
-6 31 -17 34 -35 11 -48 21 -51 43 -2 11 -7 21 -12 21 -5 0 -23 15 -39 33 -21
22 -31 42 -31 65 0 26 -11 43 -55 87 -30 30 -55 63 -55 73 0 10 -11 25 -25 32
-18 9 -25 22 -25 42 0 21 -9 33 -35 50 -19 13 -35 30 -35 38 0 25 -40 82 -61
87 -12 3 -19 14 -19 29 0 13 -6 24 -13 24 -8 0 -20 11 -27 25 -7 14 -17 25
-22 25 -4 0 -8 8 -8 18 0 10 -18 36 -40 57 -22 21 -40 47 -40 57 0 9 -9 22
-20 28 -12 6 -20 21 -20 35 0 14 -4 25 -10 25 -5 0 -10 7 -10 15 0 10 -10 15
-28 15 -25 0 -30 6 -47 55 -10 30 -22 55 -27 55 -15 0 -35 24 -52 61 -21 48
-37 64 -71 76 -26 8 -30 15 -33 51 -3 39 -5 42 -33 42 -26 0 -29 3 -29 30 0
17 -5 30 -11 30 -13 0 -39 25 -39 39 0 5 -9 13 -20 16 -12 4 -20 15 -20 29 0
15 -17 39 -47 67 -52 48 -61 78 -62 202 l-1 67 80 0 c72 0 80 -2 80 -19 0 -11
11 -33 25 -49 14 -17 25 -35 25 -40 0 -6 8 -13 18 -16 16 -6 33 -29 48 -68 3
-10 17 -18 30 -18 17 0 24 -6 24 -20 0 -11 7 -20 15 -20 9 0 19 -8 22 -17 4
-10 11 -21 16 -24 5 -4 12 -30 15 -58 l4 -50 44 -7 c38 -5 44 -10 44 -30 0
-13 9 -28 19 -33 20 -11 41 -60 41 -97 0 -21 5 -23 58 -26 l57 -3 6 -50 c8
-63 29 -115 47 -115 19 0 82 -70 82 -91 0 -9 6 -19 14 -22 8 -3 17 -19 21 -36
6 -27 11 -31 40 -31 26 0 43 -9 70 -35 19 -20 35 -39 35 -44 0 -5 9 -11 20
-14 17 -4 20 -14 20 -71 0 -69 -2 -64 71 -172 8 -13 29 -36 46 -51 16 -15 40
-45 52 -65 12 -20 35 -48 51 -61 15 -13 35 -37 43 -54 9 -16 47 -63 85 -104
38 -41 80 -92 94 -115 15 -22 39 -47 55 -55 16 -8 51 -39 77 -69 26 -30 85
-95 131 -145 47 -49 105 -111 129 -137 43 -46 47 -48 99 -48 69 0 97 -27 97
-95 0 -45 0 -45 35 -45 22 0 38 -6 41 -15 4 -8 15 -15 25 -15 14 0 19 -7 19
-25 0 -18 5 -25 20 -25 16 0 20 -7 20 -30 0 -28 2 -30 39 -30 42 0 51 -11 51
-61 0 -16 3 -29 8 -29 4 0 16 -16 26 -35 11 -19 23 -35 28 -35 4 0 8 1083 8
2406 l0 2406 -22 -6 c-13 -3 -40 -6 -60 -6 -28 0 -45 -8 -76 -38 -51 -49 -82
-62 -147 -62 l-55 0 0 -54 c0 -37 -7 -67 -25 -100 -14 -26 -25 -52 -25 -59 0
-28 -64 -50 -164 -55 -71 -3 -104 -9 -117 -21 -11 -9 -27 -23 -38 -32 -20 -18
-105 -49 -132 -49 -10 0 -24 -6 -31 -13 -19 -19 -119 -37 -205 -37 l-73 0 0
75 0 75 35 0 c31 0 35 3 35 26 0 17 6 28 19 31 11 3 21 13 24 24 4 13 14 19
35 19 16 0 35 7 42 15 8 9 30 15 56 15 32 0 44 4 44 15 0 9 9 15 25 15 14 0
25 5 25 10 0 6 41 10 104 10 57 0 111 3 120 6 13 5 16 22 16 80 0 43 4 74 10
74 6 0 10 11 10 24 0 18 -7 25 -31 30 -48 9 -49 9 -49 -39 l0 -45 -85 0 -85 0
0 78 c0 102 6 122 36 122 22 0 24 4 24 55 l0 55 80 0 c70 0 80 -2 80 -18 0
-14 14 -21 59 -31 59 -13 112 -10 271 17 l45 7 3 73 3 72 99 0 100 0 0 -74 c0
-41 5 -78 10 -81 6 -4 10 46 10 142 l0 148 -141 -3 c-77 -2 -156 -1 -175 2
l-34 7 0 64 c0 57 -2 65 -19 65 -11 0 -32 7 -48 14 -15 8 -36 17 -45 20 -10 3
-18 15 -18 26 0 17 -6 20 -45 20 l-45 0 0 75 0 75 75 0 c43 0 75 -4 75 -10 0
-5 20 -10 45 -10 48 0 106 -19 130 -44 9 -8 15 -33 15 -59 l0 -45 62 -5 c35
-4 87 -10 116 -15 l52 -8 0 388 0 388 -50 0 c-27 0 -50 -4 -50 -10 0 -6 -33
-10 -80 -10 -78 0 -80 1 -80 24 0 14 -13 36 -30 53 -16 15 -30 34 -30 40 0 8
-15 13 -41 13 l-42 0 6 98 c3 53 12 109 19 124 13 27 15 28 97 28 83 0 84 0
117 -36 19 -19 34 -43 34 -53 0 -10 12 -34 28 -54 22 -30 33 -36 65 -37 l37 0
0 635 0 635 -75 0 -75 0 0 -70 c0 -56 -3 -70 -15 -70 -8 0 -15 -7 -15 -15 0
-8 -4 -15 -9 -15 -5 0 -11 -8 -14 -18 -2 -11 -17 -22 -36 -25 -26 -6 -31 -11
-31 -37 0 -27 -3 -30 -30 -30 -25 0 -30 -4 -30 -25 0 -18 -7 -28 -25 -35 -14
-5 -30 -21 -37 -35 -6 -14 -15 -25 -20 -25 -4 0 -8 -8 -8 -19 0 -10 -7 -24
-15 -31 -8 -7 -15 -17 -15 -22 0 -14 -26 -38 -42 -38 -7 0 -31 -7 -53 -15 -22
-8 -59 -14 -82 -15 -24 0 -43 -4 -43 -10 0 -14 -192 -13 -227 1 -17 7 -87 11
-180 11 l-153 -1 0 44 c0 25 -4 45 -10 45 -5 0 -10 -25 -10 -55 l0 -55 -34 0
c-19 0 -36 -4 -38 -9 -1 -5 -81 -13 -175 -17 l-173 -7 0 42 c0 40 -1 41 -32
41 -18 0 -56 3 -84 6 l-52 7 -7 -33 -7 -32 -89 4 -89 4 0 -32 0 -33 -195 2
c-149 2 -198 -1 -204 -11 -4 -8 -43 -15 -104 -19 -94 -6 -96 -6 -99 -32 -3
-23 -8 -26 -48 -29 -25 -2 -49 -7 -54 -13 -6 -5 -36 -9 -68 -9 -32 0 -58 -4
-58 -10 0 -5 -11 -10 -24 -10 -14 0 -27 -4 -31 -10 -3 -5 -32 -14 -65 -21
l-60 -12 0 -51 c0 -51 0 -51 50 -78 l50 -28 0 -81 0 -81 -107 4 c-85 4 -116
10 -148 27 -21 11 -50 21 -62 21 -13 0 -23 4 -23 8 0 5 -22 14 -50 21 -27 7
-52 17 -56 22 -3 5 -16 9 -29 9 -14 0 -26 7 -30 19 -5 16 -19 20 -93 25 -251
17 -262 18 -262 31 0 8 -10 17 -22 20 -13 4 -47 18 -76 31 -41 19 -70 24 -132
24 -61 0 -80 3 -80 14 0 9 -19 15 -61 19 -34 3 -65 10 -68 16 -4 6 -35 15 -70
19 -35 5 -66 14 -69 19 -4 6 -28 12 -54 14 -41 4 -48 1 -48 -13 0 -13 8 -18
25 -18 24 0 25 -2 25 -75 l0 -75 -75 0 -75 0 0 35 c0 31 -3 35 -25 35 -24 0
-25 2 -25 75 0 64 2 75 18 76 14 0 14 2 -3 9 -34 14 -35 12 -35 -55 l0 -65
-95 0 -95 0 0 83 c0 77 2 85 23 95 21 10 20 11 -10 11 -17 1 -35 6 -38 11 -3
6 -33 10 -66 10 -46 0 -59 3 -59 15 0 8 -9 15 -19 15 -11 0 -22 4 -25 9 -4 5
-25 12 -49 16 -23 4 -49 11 -58 16 -8 4 -56 13 -105 20 -66 9 -95 17 -114 34
-28 25 -67 38 -76 24 -3 -5 -43 -9 -89 -9 l-84 0 -3 32 c-3 31 -6 34 -53 43
l-50 11 -6 69 c-3 39 -6 62 -7 53 -1 -10 -10 -27 -19 -38 -15 -17 -30 -20 -90
-20 -42 0 -73 4 -73 10 0 6 -9 10 -20 10 -11 0 -20 4 -20 9 0 6 -15 11 -32 13
l-33 3 -3 138 -3 137 -29 0 -30 0 0 -80 0 -80 -45 0 c-25 0 -45 -4 -45 -9 0
-5 -11 -12 -25 -15 -47 -12 -25 -26 40 -26 l65 0 0 -77 c0 -43 -4 -83 -8 -89
-4 -7 -27 -23 -52 -36 -105 -57 -111 -62 -105 -83 11 -38 18 -163 11 -199 l-7
-36 -112 0 c-124 0 -141 8 -154 71 -5 29 -6 29 -72 29 -103 0 -111 5 -111 56
0 32 -4 44 -15 44 -17 0 -20 63 -8 183 l6 67 78 0 79 0 1 -52 c0 -32 3 -46 8
-35 3 10 18 23 31 30 18 9 26 22 28 45 3 31 2 32 -32 32 l-36 0 0 80 c0 79 0
80 25 80 14 0 25 5 25 10 0 6 7 10 15 10 8 0 15 4 15 10 0 5 23 12 50 16 32 4
50 11 50 20 0 7 15 18 33 23 20 6 -370 10 -1082 10 -613 1 -1112 -1 -1110 -4
6 -5 232 -65 248 -65 6 0 11 12 11 27 l0 26 128 -6 c71 -3 141 -11 156 -17 15
-5 60 -10 101 -10 69 0 73 -1 79 -25 5 -19 13 -25 34 -25 15 0 52 -6 82 -14
30 -7 109 -19 175 -26 66 -7 126 -16 133 -20 18 -9 104 11 126 29 9 7 16 21
16 31 0 31 38 67 77 75 21 4 129 9 241 12 l202 4 0 -89 0 -88 -33 -12 c-18 -7
-43 -12 -55 -12 -12 0 -22 -4 -22 -10 0 -5 -8 -10 -18 -10 -10 0 -28 -9 -40
-20 -12 -11 -26 -20 -32 -20 -5 0 -10 -13 -10 -30 0 -20 -5 -30 -15 -30 -9 0
-18 -6 -21 -14 -3 -7 -27 -16 -54 -20 -27 -4 -55 -12 -62 -20 -7 -7 -20 -15
-28 -18 -10 -3 -5 -10 18 -22 27 -14 32 -14 32 -2 0 19 47 28 125 24 l60 -3 2
-50 c2 -27 5 -78 9 -112 5 -61 6 -63 34 -63 16 0 32 -5 35 -10 4 -6 41 -27 83
-47 42 -20 79 -39 82 -43 3 -4 35 -21 72 -39 37 -18 73 -42 79 -54 13 -24 57
-64 125 -112 103 -74 155 -118 191 -161 22 -27 87 -78 153 -122 63 -42 135
-93 160 -114 25 -21 74 -63 110 -93 36 -30 68 -55 72 -55 5 0 8 -4 8 -10 0 -5
9 -19 20 -30 11 -11 20 -27 20 -35 0 -8 5 -15 10 -15 6 0 10 -13 10 -29 0 -22
6 -30 25 -35 25 -6 25 -8 25 -111 l0 -105 -72 0 c-69 0 -74 1 -86 27 -6 15
-12 44 -12 65 0 27 -4 38 -15 38 -8 0 -15 7 -15 15 0 9 -9 15 -25 15 -14 0
-25 6 -25 13 0 20 -81 102 -145 146 -32 23 -73 54 -90 69 -16 15 -51 38 -77
52 -27 14 -48 28 -48 32 0 4 -26 21 -59 38 -32 17 -91 58 -132 92 -41 33 -89
67 -106 76 -19 9 -33 23 -33 34 0 10 -7 18 -17 18 -19 1 -53 22 -53 34 0 10
-47 56 -57 56 -16 0 -71 56 -75 75 -2 15 -12 21 -38 23 -19 2 -39 10 -43 18
-4 8 -16 14 -27 14 -10 0 -40 20 -65 45 -26 24 -55 47 -66 50 -13 4 -19 16
-19 36 0 28 -1 29 -49 29 -41 0 -51 4 -56 20 -3 11 -13 20 -21 20 -7 0 -34 16
-60 35 -25 19 -56 38 -70 41 -13 3 -24 9 -24 13 0 10 -83 51 -104 51 -9 0 -24
4 -34 9 -9 5 -30 14 -47 21 -16 6 -43 18 -58 26 -16 8 -43 14 -60 14 -34 0
-97 20 -97 31 0 4 -21 11 -47 14 -27 4 -91 20 -143 37 -138 43 -149 46 -220
59 -36 6 -72 18 -81 25 -8 8 -32 14 -52 14 -20 0 -39 5 -42 10 -3 6 -15 10
-26 10 -10 0 -19 3 -19 8 0 13 -96 42 -139 42 -22 0 -55 8 -73 18 -18 11 -69
29 -113 41 -44 12 -93 27 -110 33 -16 6 -50 13 -75 16 -25 2 -56 12 -70 22
-14 9 -33 20 -42 23 -13 5 -18 17 -18 47 l0 40 -80 0 -80 0 0 -40 0 -40 -80 0
-80 0 0 40 0 40 -190 0 -190 0 0 -300z m7590 -510 c0 -5 11 -10 25 -10 14 0
25 -4 25 -10 0 -5 16 -10 35 -10 24 0 35 -5 35 -15 0 -8 9 -15 21 -15 35 0 58
-19 65 -55 5 -30 10 -35 34 -35 32 0 92 -37 138 -86 26 -29 32 -43 32 -80 0
-44 0 -44 35 -44 20 0 47 -7 60 -16 23 -15 25 -22 25 -100 0 -46 6 -103 14
-126 8 -24 16 -55 20 -69 3 -15 34 -55 68 -89 l63 -63 9 57 9 56 79 0 c71 0
78 -2 78 -20 0 -11 5 -20 11 -20 7 0 8 7 4 18 -15 34 -24 98 -25 165 l0 67 55
0 c42 0 55 3 55 15 0 12 16 15 80 15 l80 0 0 -80 c0 -73 -2 -80 -20 -80 -16 0
-20 -7 -20 -34 0 -18 -3 -48 -6 -65 -6 -28 -4 -31 20 -31 21 0 26 -5 26 -25 0
-14 5 -25 10 -25 6 0 10 -35 10 -84 0 -47 5 -88 10 -91 6 -3 10 -15 10 -26 0
-10 5 -19 11 -19 7 0 18 -8 25 -17 12 -16 13 -15 14 10 l0 27 80 0 c50 0 80
-4 80 -11 0 -6 7 -18 16 -27 24 -24 12 -269 -14 -292 -9 -9 -22 -25 -28 -35
-6 -11 -26 -28 -45 -40 -32 -19 -50 -20 -266 -19 -187 0 -233 -2 -233 -13 0
-7 -4 -13 -9 -13 -5 0 -15 -16 -21 -35 -6 -19 -15 -35 -20 -35 -9 0 -19 -21
-30 -65 -4 -16 -11 -38 -15 -47 -6 -16 0 -18 52 -18 l60 0 6 -97 c10 -152 9
-183 -7 -183 -9 0 -16 -12 -18 -27 -3 -28 -4 -28 -85 -31 l-83 -3 0 76 c0 75
-12 93 -23 36 -6 -30 -98 -129 -171 -185 -21 -16 -44 -43 -52 -60 -21 -45 -65
-118 -81 -134 -7 -7 -13 -18 -13 -24 0 -6 -7 -16 -15 -22 -9 -7 -18 -44 -25
-104 -6 -52 -19 -120 -30 -153 -23 -68 -25 -92 -6 -66 11 13 29 17 90 17 l76
0 0 -72 -1 -73 -64 -67 c-35 -38 -68 -68 -74 -68 -6 0 -11 -9 -11 -20 0 -11
-4 -20 -10 -20 -5 0 -10 -6 -10 -14 0 -7 -11 -24 -23 -37 -13 -13 -32 -49 -42
-79 -9 -30 -21 -63 -26 -72 -18 -35 -49 -138 -49 -161 0 -14 -6 -30 -14 -36
-8 -7 -17 -24 -21 -39 -8 -35 -44 -110 -56 -118 -5 -3 -9 -20 -9 -37 -1 -25
-9 -38 -37 -59 -33 -26 -44 -28 -125 -28 -81 0 -88 2 -88 20 0 11 -7 20 -15
20 -22 0 -22 144 0 162 39 32 45 41 51 66 7 31 28 85 50 124 7 14 14 35 14 47
0 20 19 72 31 81 3 3 11 28 17 55 5 28 17 68 26 90 8 22 15 57 16 77 0 20 4
39 8 42 5 3 12 59 15 126 6 100 11 128 31 168 32 61 55 125 66 182 5 25 16 63
24 85 8 22 15 64 16 93 0 28 5 52 10 52 6 0 10 16 10 35 0 31 3 35 25 35 34 0
85 70 85 117 l0 33 -55 0 c-52 0 -55 1 -55 25 0 21 -5 25 -29 25 -17 0 -33 5
-36 11 -4 5 -18 14 -31 19 -23 9 -24 14 -24 90 l0 80 76 0 c98 0 134 -18 134
-67 0 -18 6 -23 28 -23 15 0 35 7 45 14 18 14 23 73 26 309 l1 87 75 0 75 0 0
-50 c0 -38 4 -50 15 -50 19 0 21 70 3 88 -6 6 -14 50 -16 97 -4 79 -3 88 17
101 15 11 21 26 21 52 0 67 -7 78 -46 74 l-34 -4 0 -54 c0 -47 -3 -54 -19 -54
-11 0 -21 -5 -23 -10 -4 -13 -152 -30 -255 -30 -69 0 -73 1 -79 25 -3 14 -12
25 -19 25 -7 0 -15 5 -17 11 -2 6 -27 14 -56 17 l-52 5 0 72 0 72 39 17 c31
14 59 17 137 15 66 -3 99 -8 102 -16 2 -9 27 -13 76 -13 l73 0 -11 34 c-9 30
-16 35 -64 47 -29 7 -62 21 -74 31 -12 10 -25 18 -29 18 -4 0 -14 6 -21 13 -7
6 -44 23 -82 35 -38 13 -91 34 -117 47 -26 12 -59 25 -73 29 -17 4 -26 13 -26
26 0 15 -7 20 -25 20 -17 0 -25 6 -26 18 0 10 -3 12 -6 5 -3 -9 -30 -13 -84
-13 l-79 0 0 64 c0 58 -2 65 -22 72 -13 4 -26 12 -30 18 -4 6 -8 -13 -8 -41
l0 -53 -76 0 -76 0 4 80 c3 83 0 90 -43 90 -15 0 -19 -7 -19 -35 0 -24 -5 -35
-15 -35 -8 0 -15 -7 -15 -15 0 -12 -16 -15 -84 -15 -119 0 -116 -2 -116 89 0
68 3 79 25 100 22 20 25 32 25 86 l0 64 55 6 c49 7 55 10 55 30 0 20 8 25 50
34 28 6 134 11 235 11 174 0 186 -1 197 -20 10 -15 24 -20 60 -20 l48 0 0 70
0 70 80 0 c47 0 80 -4 80 -10z m1160 -56 c52 -9 118 -18 145 -21 30 -3 55 -11
63 -21 7 -9 12 -46 12 -89 l0 -73 -134 0 c-83 0 -136 4 -138 10 -2 6 -39 14
-83 18 l-80 7 -3 93 -3 92 63 0 c35 0 106 -8 158 -16z m-4490 -9 c0 -9 9 -15
25 -15 14 0 28 -6 31 -14 3 -8 20 -18 37 -21 57 -11 67 -16 67 -31 0 -8 2 -14
4 -14 2 0 11 -3 20 -6 12 -4 16 0 16 15 0 19 5 21 75 21 60 0 75 -3 75 -15 0
-10 10 -15 29 -15 15 0 49 -3 75 -6 44 -6 46 -8 46 -40 0 -33 1 -34 39 -34 30
0 44 -6 59 -25 12 -16 34 -27 61 -31 l41 -7 0 -97 0 -97 -37 -7 c-21 -3 -66
-6 -100 -6 -60 0 -63 1 -63 24 0 32 -7 36 -85 43 -36 3 -65 9 -65 13 0 4 -21
11 -47 15 -76 10 -93 16 -93 31 0 8 -10 14 -25 14 -14 0 -25 5 -25 10 0 6 -18
10 -39 10 -63 0 -89 13 -158 78 -19 17 -41 32 -49 32 -8 0 -14 6 -14 14 0 9
-12 16 -27 18 -28 3 -28 4 -31 81 l-3 77 81 0 c64 0 80 -3 80 -15z m1074 -370
l7 -35 83 0 84 0 16 -35 c11 -23 24 -35 37 -35 14 0 25 -10 32 -30 7 -17 19
-30 28 -30 10 0 23 -13 30 -30 8 -17 24 -32 39 -35 15 -4 41 -28 65 -60 22
-30 46 -55 53 -55 6 0 12 -9 12 -20 0 -11 5 -20 10 -20 6 0 10 -13 10 -30 0
-28 2 -30 40 -30 39 0 40 1 40 35 0 23 5 35 14 35 22 0 66 61 66 92 0 15 5 28
10 28 6 0 10 10 10 23 0 12 7 31 15 41 9 11 15 41 15 68 l0 48 73 0 c69 0 75
-2 87 -26 8 -14 22 -30 32 -35 15 -8 18 -23 18 -95 0 -47 -4 -90 -10 -97 -61
-75 -60 -72 -60 -152 l0 -77 -85 3 -84 4 -3 -40 -3 -40 -132 -3 -133 -3 0 46
0 45 -39 0 c-31 0 -41 4 -46 20 -3 11 -11 20 -16 20 -6 0 -17 16 -24 35 -12
27 -22 35 -50 41 -30 5 -35 10 -35 35 0 26 -3 29 -32 29 -23 0 -42 10 -62 30
-16 17 -34 30 -39 30 -5 0 -27 16 -49 35 -34 31 -41 34 -53 21 -8 -8 -15 -26
-15 -39 0 -14 -5 -27 -10 -29 -7 -2 -7 -15 0 -38 5 -19 10 -77 10 -127 l0 -93
-74 0 -73 0 -7 43 c-3 23 -9 115 -13 205 -5 137 -4 165 9 180 9 10 18 46 21
90 3 39 9 77 12 82 3 6 41 10 84 10 l79 0 6 -35z m3680 -124 c3 -5 18 -12 33
-16 16 -3 38 -16 51 -27 20 -19 22 -31 22 -111 l0 -89 -82 5 c-46 3 -120 5
-165 6 l-83 0 1 68 c0 106 10 146 39 160 28 14 176 18 184 4z m-2537 -121 c5
-18 14 -20 74 -20 39 0 69 -4 69 -10 0 -5 24 -10 53 -10 29 0 57 -4 63 -9 5
-5 59 -12 119 -15 61 -4 131 -9 158 -12 l47 -6 0 -78 0 -78 -146 -7 c-80 -4
-164 -4 -187 -1 -23 4 -63 10 -89 13 -38 4 -48 9 -48 24 0 17 -9 19 -95 19
-94 0 -95 0 -95 24 0 23 -4 25 -52 28 l-53 3 -3 78 -3 77 92 0 c82 0 91 -2 96
-20z m-2097 -475 l0 -45 54 0 c64 0 66 -3 66 -101 l0 -70 -82 3 -83 3 -3 53
-3 52 -50 0 -49 0 0 75 0 75 75 0 75 0 0 -45z m2914 -81 c12 -5 16 -20 16 -60
l0 -54 45 0 c31 0 47 -5 51 -15 4 -8 12 -15 20 -15 7 0 17 -7 22 -16 6 -11 27
-18 61 -22 l51 -5 0 -88 0 -89 -110 0 c-99 0 -111 2 -130 22 -11 12 -20 25
-20 30 0 4 -9 8 -21 8 -36 0 -49 24 -49 89 l0 61 -45 0 -45 0 0 80 0 80 69 0
c38 0 76 -3 85 -6z m-3656 -460 c-2 -109 -8 -188 -14 -192 -6 -4 -16 -22 -23
-39 -8 -18 -20 -33 -27 -33 -8 0 -14 -4 -14 -10 0 -6 -45 -10 -115 -10 -70 0
-115 4 -115 10 0 6 -9 10 -20 10 -18 0 -20 7 -20 84 0 98 -2 96 101 96 l69 0
0 74 c0 41 5 78 10 81 6 3 10 21 10 38 0 73 5 77 87 77 l75 0 -4 -186z m876
24 c3 -29 6 -94 6 -145 0 -87 -1 -94 -27 -120 -16 -15 -41 -34 -56 -40 -15 -7
-33 -17 -40 -23 -72 -61 -140 -78 -309 -79 l-68 -1 0 90 0 90 69 0 c65 0 131
14 131 28 0 4 20 29 45 56 39 42 45 54 45 93 0 44 13 81 34 95 6 4 45 8 87 8
l76 0 7 -52z m-126 -545 l-3 -78 -77 -3 -78 -3 0 74 c0 40 3 77 7 80 3 4 40 7
80 7 l74 0 -3 -77z m132 -443 l0 -80 -75 0 -75 0 0 80 0 80 75 0 75 0 0 -80z
m-1310 -403 l0 -72 -66 -24 c-44 -16 -68 -30 -71 -42 -5 -16 -16 -19 -79 -19
l-74 0 0 83 c0 45 3 92 6 103 8 29 63 41 187 43 l97 1 0 -73z m-350 -567 c0
-16 5 -30 10 -30 6 0 10 -33 10 -80 l0 -80 -75 0 -75 0 0 30 c0 17 -4 30 -10
30 -6 0 -10 33 -10 80 l0 80 75 0 75 0 0 -30z m-1030 -65 c0 -68 -2 -75 -20
-75 -11 0 -20 -4 -20 -10 0 -5 25 -10 55 -10 51 0 55 2 55 24 0 19 6 24 38 30
20 3 65 6 98 6 72 0 74 -2 74 -113 0 -67 0 -68 -29 -73 -29 -6 -29 -7 -33 -84
-1 -43 -6 -81 -10 -85 -3 -4 -58 -9 -122 -12 l-116 -6 0 42 c0 38 -2 41 -19
31 -11 -5 -35 -10 -53 -10 -18 0 -44 -9 -58 -20 -14 -11 -35 -20 -47 -20 -15
0 -23 -7 -25 -22 -2 -19 -10 -24 -45 -26 -41 -3 -43 -5 -43 -34 l0 -31 -126 5
c-115 5 -128 3 -143 -13 -10 -12 -29 -19 -53 -19 -40 0 -52 -18 -18 -27 10 -3
22 -13 25 -22 3 -10 16 -24 29 -30 24 -13 36 -51 36 -113 0 -26 3 -28 40 -28
l40 0 0 -75 c0 -43 -4 -75 -10 -75 -5 0 -10 -24 -10 -54 0 -52 -1 -54 -31 -60
-17 -3 -67 -6 -110 -6 -71 0 -79 2 -79 19 0 32 -11 51 -30 51 -14 0 -18 13
-24 77 -3 43 -13 88 -22 102 -22 35 -116 120 -132 121 -24 0 -42 66 -42 154
l0 85 55 54 c30 29 55 59 55 66 0 6 12 17 28 24 15 7 54 28 87 48 36 22 80 39
110 44 58 8 111 37 118 65 4 18 14 20 75 20 53 0 71 4 76 15 4 11 23 15 81 15
l75 0 0 -45 0 -45 54 0 c39 0 55 4 60 15 4 12 -4 15 -44 15 l-50 0 0 76 c0 67
2 76 20 81 11 3 20 12 20 19 0 11 19 14 80 14 l80 0 0 -75z m5050 20 c0 -18 5
-25 19 -25 13 0 21 -9 26 -29 3 -17 14 -31 26 -34 13 -3 19 -14 19 -31 0 -24
3 -26 45 -26 l45 0 0 -82 c0 -62 -4 -86 -17 -100 -14 -16 -15 -25 -4 -73 7
-30 17 -57 22 -60 5 -4 9 -13 9 -22 0 -9 8 -25 17 -35 20 -22 43 -83 43 -115
0 -13 6 -23 13 -23 26 -1 68 -112 77 -205 5 -54 21 -126 39 -180 17 -49 31
-95 31 -101 0 -17 29 -70 45 -84 8 -7 15 -21 15 -31 0 -10 5 -21 10 -24 12 -7
14 -225 2 -225 -4 0 -12 -10 -17 -22 -15 -34 -53 -48 -132 -48 l-73 0 0 103 0
102 -80 -3 -80 -4 0 111 0 111 30 0 c36 0 36 5 15 135 -8 50 -15 110 -15 136
0 34 -7 55 -29 85 -15 21 -36 66 -45 99 -10 33 -29 87 -42 120 -13 33 -24 72
-24 86 0 14 -7 34 -15 45 -8 10 -15 27 -15 36 0 9 -5 18 -11 20 -5 2 -13 24
-15 48 -3 25 -9 54 -14 65 -5 11 -11 36 -15 55 -3 19 -8 50 -12 68 -4 23 -11
32 -24 32 -17 0 -19 8 -19 75 l0 75 75 0 c73 0 75 -1 75 -25z m-3772 -392 l-3
-78 -32 -3 c-27 -3 -33 -7 -33 -28 0 -23 3 -24 55 -24 l55 0 0 -35 c0 -19 5
-35 10 -35 6 0 10 -11 10 -25 0 -25 0 -25 95 -25 l95 0 0 -84 c0 -67 -3 -85
-16 -90 -27 -10 -194 -7 -194 4 0 6 -52 10 -135 10 -83 0 -135 4 -135 10 0 6
-11 10 -25 10 -24 0 -25 -2 -25 -74 0 -86 0 -86 -100 -86 l-67 0 -7 31 c-3 17
-6 64 -6 104 l0 73 -62 9 c-61 8 -63 7 -66 -14 -2 -15 -10 -23 -23 -23 -11 0
-30 -11 -43 -25 -23 -24 -27 -25 -160 -25 l-136 0 0 75 0 75 38 1 c20 1 48 5
62 9 22 7 21 8 -12 9 -30 1 -38 5 -38 20 0 15 -10 20 -50 25 -34 5 -50 11 -50
21 0 10 -10 15 -30 15 l-30 0 0 79 0 78 61 7 c92 9 179 7 179 -4 0 -5 13 -10
29 -10 16 0 31 -6 35 -15 3 -10 19 -15 44 -15 22 0 59 -7 82 -15 23 -8 55 -15
70 -15 16 0 30 -5 32 -12 6 -17 278 -26 278 -9 0 6 7 11 15 11 8 0 15 5 15 10
0 6 11 10 25 10 24 0 25 2 25 75 l0 75 85 0 86 0 -3 -77z m-368 -763 c23 -21
44 -30 67 -30 18 0 33 -5 33 -11 0 -18 43 -59 63 -59 10 0 20 -7 23 -15 5 -12
25 -15 93 -15 56 -1 95 -6 111 -15 14 -8 35 -14 46 -15 15 0 24 -8 28 -25 7
-28 17 -31 126 -45 41 -5 76 -13 78 -19 2 -7 40 -11 98 -11 56 0 94 -4 94 -10
0 -5 6 -10 13 -10 7 0 18 -9 25 -20 8 -13 23 -20 42 -20 l31 0 -3 -82 -3 -83
-92 -3 c-60 -2 -93 1 -93 8 0 5 -21 10 -47 10 -27 0 -66 7 -88 15 -22 8 -59
14 -82 15 -23 0 -45 5 -48 10 -3 6 -19 10 -35 10 -16 0 -32 5 -35 10 -3 6 -22
10 -41 10 -20 0 -41 6 -49 13 -7 8 -61 19 -126 26 -62 7 -118 16 -124 20 -5 5
-21 12 -35 16 -27 8 -50 28 -50 43 0 22 -62 62 -96 62 -22 0 -37 6 -40 15 -5
11 -23 15 -74 15 -81 0 -80 -2 -87 128 l-6 92 125 0 c124 0 124 0 158 -30z
m4380 -405 l0 -75 -80 0 -80 0 0 75 0 75 80 0 80 0 0 -75z m-150 -184 c0 -57
-4 -80 -14 -84 -7 -3 -16 -18 -19 -34 -3 -15 -16 -44 -29 -63 -22 -33 -27 -35
-86 -38 l-62 -3 0 -69 c0 -62 -2 -70 -19 -70 -14 0 -20 -10 -24 -40 -3 -24
-23 -68 -47 -105 l-42 -65 -75 0 -75 0 4 89 c3 83 5 91 31 111 15 12 27 28 27
36 0 8 5 14 10 14 6 0 10 11 10 25 0 20 5 25 25 25 21 0 25 5 25 30 l0 30 60
0 60 0 0 71 c0 54 5 77 19 98 11 15 21 40 23 56 2 19 11 33 26 40 12 5 22 13
22 17 0 5 34 8 75 8 l75 0 0 -79z m920 -198 c0 -125 1 -123 -91 -123 l-79 0 0
85 c0 55 5 91 13 100 8 10 35 14 85 15 l72 0 0 -77z m-4305 -165 c33 -5 82
-12 110 -15 33 -3 54 -12 63 -24 7 -11 22 -19 33 -19 18 0 20 -6 17 -92 l-3
-93 -105 0 c-58 0 -110 -3 -116 -7 -6 -4 -42 -12 -80 -18 -38 -6 -70 -15 -72
-21 -2 -5 -18 -9 -36 -9 -19 0 -46 -11 -66 -25 -28 -21 -45 -25 -102 -25 -54
0 -68 -3 -68 -15 0 -12 -15 -15 -75 -15 l-75 0 0 75 0 75 48 1 c31 1 37 3 19
6 l-29 4 4 104 c1 57 7 107 11 112 23 22 387 24 522 1z m-807 -186 l3 -83 -83
3 -83 3 -3 83 -3 83 83 -3 83 -3 3 -83z m5247 38 c4 -14 15 -20 36 -20 l29 0
0 -164 c0 -91 4 -167 9 -170 5 -4 9 -89 10 -191 l0 -185 -83 0 c-94 0 -96 1
-96 88 0 23 -4 42 -10 42 -5 0 -10 13 -10 29 0 26 -4 30 -32 33 l-33 3 -3 75
c-2 61 0 77 14 87 15 11 16 30 10 203 l-7 190 80 0 c71 0 80 -2 86 -20z
m-1595 -220 c0 -80 -3 -102 -15 -106 -11 -5 -15 -24 -15 -80 0 -54 -4 -76 -14
-80 -8 -3 -16 -18 -19 -33 -4 -17 -14 -31 -26 -34 -12 -3 -21 -12 -21 -20 0
-8 -13 -20 -29 -27 -17 -7 -32 -22 -35 -36 -5 -20 -13 -24 -41 -24 -31 0 -35
-3 -35 -25 0 -35 -34 -103 -75 -149 -19 -21 -35 -44 -35 -50 0 -7 -19 -27 -42
-44 -24 -17 -77 -63 -118 -103 -41 -39 -88 -78 -105 -87 -16 -8 -34 -20 -40
-27 -5 -6 -53 -49 -105 -96 -52 -46 -126 -112 -164 -146 -37 -35 -72 -63 -77
-63 -5 0 -37 -13 -71 -29 -35 -17 -85 -35 -113 -41 -27 -6 -68 -20 -91 -30
-39 -19 -77 -25 -302 -50 -68 -8 -115 -18 -135 -31 -37 -22 -136 -26 -198 -7
-36 10 -39 14 -39 49 l0 37 -117 6 c-143 8 -163 12 -163 31 0 8 -4 15 -10 15
-15 0 -50 33 -50 47 0 7 -9 13 -20 13 -11 0 -35 16 -52 36 -17 19 -44 42 -59
50 -23 11 -29 21 -29 48 l0 33 -101 6 c-99 6 -189 34 -189 58 0 5 -28 9 -62 9
-99 0 -108 5 -108 56 0 40 -2 44 -25 44 -14 0 -28 6 -31 13 -4 10 -25 12 -89
9 -106 -6 -127 0 -143 38 -8 16 -20 30 -27 30 -8 0 -20 12 -27 28 -10 21 -21
28 -51 30 -20 2 -37 7 -37 13 0 5 -17 9 -37 9 -21 1 -56 7 -78 15 -22 8 -74
18 -115 21 -41 4 -79 10 -85 14 -5 4 -37 11 -70 14 -77 9 -122 23 -129 41 -6
17 -42 20 -51 5 -3 -5 -44 -10 -90 -10 -46 0 -87 5 -90 10 -3 6 -33 10 -65 10
-49 0 -61 3 -70 20 -7 14 -21 20 -44 20 -43 0 -52 12 -60 81 -5 42 -12 58 -25
62 -9 2 -23 23 -31 48 -7 24 -20 53 -27 64 -8 12 -13 50 -13 97 l0 78 74 0 75
0 29 -52 c17 -29 33 -70 37 -91 6 -30 13 -38 34 -43 14 -3 39 -11 56 -17 33
-12 98 -10 103 4 6 15 203 10 247 -7 70 -27 72 -27 78 -5 5 20 12 21 130 21
117 0 126 -1 132 -20 8 -27 23 -25 27 3 3 20 9 22 73 25 38 2 79 -1 90 -7 11
-5 53 -12 94 -14 53 -3 78 -9 86 -21 7 -9 17 -16 24 -16 6 0 14 -7 17 -15 4
-9 19 -15 40 -15 l34 0 0 65 c0 51 3 65 15 65 8 0 15 5 15 11 0 6 10 19 23 30
28 23 167 28 167 6 0 -10 12 -12 53 -6 28 4 82 8 118 8 58 1 68 -2 87 -24 17
-19 32 -25 62 -25 22 0 40 -4 40 -10 0 -5 24 -10 54 -10 30 0 58 -4 61 -10 4
-6 57 -10 127 -10 114 0 122 -1 175 -30 33 -19 69 -30 92 -30 37 0 39 -1 44
-40 7 -53 41 -100 74 -100 16 0 27 -7 30 -20 3 -10 15 -22 27 -26 27 -9 36
-22 36 -56 0 -24 4 -28 26 -28 15 0 44 -5 64 -11 39 -12 50 -33 50 -95 0 -17
6 -24 20 -24 18 0 20 -7 20 -80 l0 -80 -75 0 c-73 0 -75 1 -75 24 0 22 -5 25
-72 33 l-73 8 -9 37 c-8 33 -13 37 -55 45 -33 6 -49 14 -56 30 -5 13 -22 24
-42 28 -18 3 -47 21 -65 40 -34 36 -104 58 -158 50 -104 -16 -100 -14 -100
-45 0 -20 -5 -30 -15 -30 -8 0 -15 -6 -15 -14 0 -20 -101 -30 -206 -21 l-84 7
0 74 0 74 68 1 c37 1 54 4 38 6 -15 3 -44 13 -62 24 -19 10 -41 19 -48 19 -17
0 -26 22 -26 66 0 31 -3 34 -29 34 -16 0 -38 3 -48 6 -13 4 -14 3 -5 -3 9 -7
12 -34 10 -94 l-3 -84 -110 -5 c-62 -3 -104 -9 -97 -13 6 -5 12 -17 12 -28 0
-15 7 -19 35 -19 33 0 35 -2 35 -35 l0 -35 49 0 c31 0 55 -6 65 -15 8 -8 20
-15 26 -15 6 0 13 -7 16 -15 4 -8 17 -15 30 -15 13 0 33 -9 44 -20 11 -11 30
-20 43 -20 12 0 31 -7 41 -15 11 -8 28 -15 38 -15 34 0 68 -30 68 -61 0 -27 3
-29 38 -29 23 0 44 -7 53 -17 9 -10 27 -25 40 -33 13 -8 34 -27 48 -42 l25
-28 171 7 c164 6 171 7 193 31 23 24 26 24 145 21 l122 -4 3 28 3 27 92 0 c85
0 94 -2 116 -25 15 -17 34 -25 57 -25 49 0 137 20 155 36 8 8 20 14 25 14 20
0 114 100 114 120 0 6 9 10 20 10 11 0 23 7 26 15 4 8 12 15 18 15 7 0 26 17
42 37 16 20 44 51 62 68 17 18 32 37 32 44 0 6 6 11 14 11 8 0 16 7 20 15 3 8
12 15 20 15 8 0 29 18 47 40 18 22 39 40 46 40 6 0 24 15 38 34 14 19 38 37
53 41 15 4 41 17 59 31 17 13 36 24 41 24 18 0 32 53 32 120 l0 70 49 0 c61 0
81 7 81 29 0 9 13 22 30 29 16 7 32 22 35 33 4 10 13 19 21 19 11 0 14 18 14
85 0 47 4 85 9 85 5 0 13 9 16 20 6 18 15 20 81 20 l74 0 0 -100z m1860 -534
c0 -35 -3 -78 -6 -95 l-6 -31 -74 0 -74 0 0 88 c0 49 3 92 7 95 3 4 39 7 80 7
l73 0 0 -64z m-6416 -57 c3 -17 6 -42 6 -55 0 -22 4 -24 45 -24 l45 0 0 -95 0
-95 70 0 70 0 0 -110 0 -110 -75 0 -74 0 -3 92 c-3 86 -4 91 -20 75 -12 -13
-34 -17 -87 -17 l-71 0 0 45 c0 25 -4 45 -10 45 -5 0 -10 18 -10 40 0 22 -5
40 -11 40 -29 0 -39 30 -39 114 l0 86 79 0 79 0 6 -31z m5156 -64 l0 -75 70 0
c56 0 70 -3 70 -15 0 -12 14 -15 65 -15 l65 0 0 -74 0 -74 -50 -11 c-28 -6
-80 -11 -115 -11 l-65 0 0 -34 c0 -43 -22 -66 -63 -66 -17 0 -46 -5 -64 -12
-28 -10 -33 -17 -33 -45 0 -31 -8 -43 -54 -80 -8 -7 -19 -13 -24 -13 -16 0
-30 -45 -37 -115 -3 -38 -15 -89 -26 -112 l-21 -43 -64 0 -64 0 0 -30 0 -30
-75 0 -75 0 0 80 0 80 55 0 55 0 0 65 c0 50 4 66 18 74 14 8 15 13 5 30 -7 12
-13 28 -13 36 0 8 -7 15 -15 15 -9 0 -15 -9 -15 -25 0 -25 -1 -25 -80 -25
l-80 0 0 80 0 80 45 0 45 0 0 40 c0 36 3 40 24 40 34 0 56 10 56 26 0 17 31
34 62 34 34 1 56 22 63 63 6 30 12 37 31 37 12 0 26 5 29 10 3 6 17 10 31 10
23 0 24 2 24 70 0 56 3 70 15 70 8 0 15 9 15 20 0 19 7 20 95 20 l95 0 0 -75z
m-4500 -110 c0 -48 2 -55 20 -55 18 0 20 -7 20 -75 l0 -75 -75 0 -75 0 0 55
c0 48 -2 55 -20 55 -18 0 -20 7 -20 75 l0 75 75 0 75 0 0 -55z m6250 -70 l0
-75 -80 0 -80 0 0 75 0 75 80 0 80 0 0 -75z m228 -162 l-3 -78 -77 -3 -78 -3
0 81 0 80 80 0 81 0 -3 -77z m-748 -53 l0 -80 -135 0 -135 0 0 74 c0 50 4 76
13 79 6 3 67 6 135 6 l122 1 0 -80z m-6350 -112 c0 -40 -3 -90 -6 -110 l-7
-38 -76 0 c-47 0 -82 5 -89 12 -15 15 -17 178 -2 178 6 0 10 7 10 15 0 12 16
15 85 15 l85 0 0 -72z m4200 12 c0 -33 2 -60 5 -60 3 0 22 7 42 15 23 10 68
15 129 15 l94 0 0 -79 0 -78 -69 -12 c-39 -6 -99 -11 -135 -11 l-66 0 -1 58
c0 31 -3 50 -6 42 -10 -25 -30 -40 -54 -40 -28 0 -59 -27 -59 -52 0 -11 -9
-22 -19 -25 -11 -3 -21 -13 -24 -24 -5 -17 -15 -19 -86 -19 l-81 0 0 74 c0 53
4 77 15 86 8 7 15 18 15 24 0 6 11 23 25 38 14 15 25 29 25 32 0 12 49 52 76
62 16 7 62 12 102 13 l72 1 0 -60z m-3752 -42 l-3 -93 -92 -3 -93 -3 0 -174
c0 -110 -4 -175 -10 -175 -5 0 -10 -17 -10 -38 0 -34 -4 -40 -35 -52 -33 -13
-35 -16 -35 -62 0 -43 -2 -48 -22 -48 -13 0 -32 -7 -42 -15 -29 -22 -182 -21
-190 1 -3 9 -6 76 -6 150 0 121 2 136 20 154 11 11 20 26 20 34 0 9 19 17 58
22 l57 9 3 118 3 117 94 0 95 0 0 60 c0 47 3 60 15 60 9 0 18 7 21 15 5 11 24
15 80 15 l75 0 -3 -92z m5592 -183 c0 -58 -3 -75 -14 -75 -8 0 -18 -10 -22
-22 -3 -12 -29 -45 -58 -73 -44 -44 -60 -53 -113 -65 -49 -11 -63 -18 -63 -32
0 -16 -10 -18 -76 -18 l-76 0 4 94 c3 71 8 97 21 110 9 10 17 23 17 30 0 13
62 26 126 26 30 0 33 3 39 38 8 49 33 59 138 61 l77 1 0 -75z m-5472 53 c15
-15 17 -278 2 -278 -5 0 -10 -16 -10 -35 0 -24 -5 -35 -15 -35 -9 0 -15 -9
-15 -22 0 -13 -11 -35 -24 -50 -22 -26 -29 -28 -100 -28 l-76 0 0 69 c0 79 21
128 58 137 23 6 23 8 16 114 -4 60 -4 116 -1 124 5 13 22 16 80 16 43 0 78 -5
85 -12z m387 -165 c-5 -105 -11 -153 -21 -164 -8 -8 -14 -25 -14 -37 0 -12 -4
-22 -8 -22 -20 0 -41 -28 -47 -62 l-7 -38 46 0 46 0 0 -85 0 -85 -75 0 -75 0
0 45 0 45 -70 0 -70 0 0 79 c0 44 5 83 10 86 6 3 10 27 10 53 0 26 7 60 15 76
8 15 15 41 15 57 0 24 4 29 26 29 40 0 54 22 54 85 0 76 10 84 99 85 l74 0 -8
-147z m2636 64 c3 -21 11 -43 18 -50 6 -6 11 -33 11 -60 l0 -49 58 6 c155 18
225 18 234 2 6 -10 23 -16 47 -16 31 0 40 5 49 25 6 14 17 25 23 25 6 0 20 11
31 25 11 14 29 25 40 25 12 0 30 8 41 18 15 13 41 18 118 20 l99 4 0 -76 c0
-69 -2 -76 -20 -76 -11 0 -20 -7 -20 -15 0 -8 -8 -15 -18 -15 -9 0 -29 -11
-44 -25 -15 -14 -31 -25 -37 -25 -5 0 -7 -9 -4 -20 3 -11 12 -20 19 -20 11 0
14 -17 14 -73 l0 -73 -32 -12 c-18 -7 -84 -16 -145 -19 l-113 -6 0 52 0 51
-57 -1 c-107 -2 -106 -1 -104 -103 l2 -89 -110 5 c-104 5 -111 4 -111 -13 0
-16 8 -19 45 -19 39 0 47 -4 57 -25 6 -14 19 -25 29 -25 10 0 21 -4 24 -10 3
-5 17 -10 31 -10 23 0 24 -2 24 -75 l0 -75 -96 0 c-71 0 -99 4 -110 15 -9 8
-24 15 -35 15 -10 0 -19 5 -19 10 0 6 -13 10 -30 10 -25 0 -30 4 -30 25 0 23
-4 25 -40 25 l-40 0 0 83 c0 51 5 88 12 95 7 7 40 12 80 12 l68 0 0 130 0 130
-27 -6 c-16 -4 -35 -10 -43 -15 -9 -4 -45 -12 -80 -19 -81 -14 -123 -33 -144
-65 -9 -14 -25 -25 -36 -25 -18 0 -20 -7 -20 -61 0 -79 -10 -89 -95 -89 -60 0
-66 -2 -74 -24 -5 -13 -16 -26 -24 -29 -8 -3 -17 -18 -20 -34 -20 -100 -29
-113 -81 -113 -33 0 -36 -2 -36 -30 0 -16 -4 -30 -9 -30 -5 0 -12 -8 -16 -19
-4 -13 -18 -20 -52 -24 -26 -3 -49 -10 -51 -16 -2 -7 -34 -11 -83 -11 -72 0
-79 2 -79 20 0 19 -7 20 -92 20 -55 1 -110 7 -133 15 -56 20 -75 19 -75 -5 0
-18 -7 -20 -69 -20 -38 0 -81 4 -95 10 -25 9 -26 14 -26 80 l0 70 -65 0 -65 0
0 95 c0 88 -1 95 -20 95 -18 0 -20 7 -20 74 l0 74 31 6 c52 10 269 7 269 -4 0
-5 7 -10 15 -10 12 0 15 -15 15 -79 0 -85 -4 -90 -67 -91 -20 0 -22 -6 -25
-75 -3 -72 -2 -75 20 -75 18 0 22 6 22 30 l0 30 85 0 c50 0 85 -4 85 -10 0 -6
45 -10 115 -10 l115 0 0 -45 0 -46 25 25 c14 14 25 29 25 34 0 15 27 22 84 22
l52 0 -4 90 c-4 89 -4 89 22 96 19 4 27 14 32 41 4 23 14 37 29 43 12 5 25 18
28 29 4 15 13 21 35 21 17 0 32 6 36 15 4 11 21 15 61 15 l55 0 0 35 c0 19 4
35 10 35 13 0 80 71 80 85 0 19 25 25 110 25 71 0 81 3 109 27 26 23 31 35 31
74 0 25 3 49 7 53 4 4 41 5 82 4 l76 -3 6 -38z m-3791 24 c0 -5 14 -11 30 -14
24 -5 30 -12 30 -32 0 -14 5 -25 10 -25 17 0 12 -167 -6 -203 -9 -18 -20 -34
-23 -37 -4 -3 -17 -22 -29 -43 -19 -33 -22 -53 -22 -142 0 -89 -3 -106 -17
-114 -14 -8 -4 -10 40 -11 l57 0 0 -75 0 -75 -80 0 c-79 0 -80 0 -80 25 0 22
-4 25 -32 25 -21 0 -44 -9 -62 -25 -16 -14 -33 -25 -38 -25 -4 0 -8 -7 -8 -15
0 -10 -10 -15 -34 -15 -38 0 -46 -14 -46 -91 0 -57 -5 -59 -111 -59 l-79 0 0
63 c0 35 3 105 6 155 6 81 9 92 25 92 14 0 19 7 19 25 0 22 4 25 35 25 19 0
50 8 69 18 28 13 36 23 36 45 0 24 6 29 45 39 25 7 45 16 45 21 0 23 -23 47
-46 47 l-25 0 5 83 c3 45 8 106 11 135 l7 52 54 0 54 0 0 73 c0 41 3 77 7 80
10 10 153 8 153 -2z m2710 -236 c0 -24 2 -24 88 -27 l87 -3 0 -80 0 -80 -32
-10 c-33 -9 -33 -10 -33 -72 l0 -63 -75 0 c-73 0 -75 1 -75 25 0 23 -4 25 -40
25 -36 0 -40 3 -40 25 0 22 -4 25 -35 25 l-35 0 0 90 c0 49 4 99 9 112 5 13
12 31 15 41 5 14 18 17 86 17 78 0 80 -1 80 -25z m2880 -115 l0 -80 -75 0 -75
0 0 80 0 80 75 0 75 0 0 -80z m-3660 -49 c0 -82 -6 -101 -31 -101 -16 0 -19
-7 -19 -44 0 -75 -2 -76 -96 -76 l-84 0 0 80 c0 77 1 80 25 86 23 6 25 11 25
65 l0 59 90 0 90 0 0 -69z m5248 -38 l-3 -78 -77 -3 -78 -3 0 74 c0 40 3 77 7
80 3 4 40 7 80 7 l74 0 -3 -77z m-7728 -74 c0 -103 -5 -109 -104 -109 l-76 0
0 75 c0 60 3 75 15 75 8 0 15 9 15 20 0 18 7 20 75 20 l75 0 0 -81z m1480 -94
c0 -73 -1 -75 -25 -75 -14 0 -25 -4 -25 -10 0 -5 -8 -19 -17 -30 -15 -17 -30
-20 -110 -20 l-93 0 0 78 0 77 40 13 c22 6 47 12 55 12 8 0 15 7 15 15 0 12
16 15 80 15 l80 0 0 -75z m6210 30 c0 -12 13 -15 55 -15 30 0 55 5 55 10 0 6
32 10 75 10 l75 0 0 -75 c0 -73 -1 -75 -25 -75 -18 0 -25 -5 -25 -19 0 -24
-30 -30 -235 -41 -160 -9 -375 -4 -375 10 0 8 -75 -3 -105 -16 -25 -10 -45
-29 -45 -43 0 -7 -24 -11 -60 -11 l-60 0 0 -54 c0 -78 -4 -80 -171 -73 -183 7
-179 10 -179 -130 l0 -103 -80 0 -79 0 -12 38 c-16 53 -25 282 -10 282 6 0 11
11 11 25 0 14 5 25 10 25 6 0 10 9 10 19 0 41 11 51 55 51 26 0 47 6 55 15 10
12 38 15 131 15 l119 0 0 -24 c0 -22 5 -24 55 -28 l55 -3 0 46 c0 66 10 109
26 109 8 0 14 7 14 15 0 18 13 19 279 20 173 0 195 2 205 18 15 24 176 26 176
2z m-1750 -124 c5 -11 10 -51 10 -90 0 -69 -1 -71 -25 -71 -14 0 -25 -4 -25
-10 0 -6 -32 -10 -75 -10 l-75 0 0 69 c0 37 5 82 11 100 l11 31 79 0 c67 0 80
-3 89 -19z m-1872 -158 l-3 -78 -77 -3 -78 -3 0 81 0 80 80 0 81 0 -3 -77z
m-3710 -220 l-3 -78 -87 -3 -88 -3 0 81 0 80 90 0 91 0 -3 -77z m2612 -2 c0
-74 -2 -81 -26 -100 -22 -17 -41 -21 -100 -21 l-74 0 0 72 c0 64 3 74 28 99
25 26 33 28 100 29 l72 0 0 -79z m-2260 -56 l0 -75 -75 0 -75 0 0 75 0 75 75
0 75 0 0 -75z"/>
<path d="M7580 8520 l0 -100 -56 0 c-47 0 -55 -3 -52 -17 4 -19 35 -31 91 -32
29 -1 37 -5 37 -20 0 -19 43 -55 54 -44 3 4 6 15 6 25 0 11 7 18 20 18 16 0
20 7 20 31 0 22 5 32 19 36 19 5 19 6 0 46 -10 23 -19 50 -19 60 0 10 -8 17
-21 17 -21 0 -79 50 -79 69 0 6 -4 11 -10 11 -6 0 -10 -40 -10 -100z"/>
<path d="M7870 8269 c0 -22 -5 -32 -19 -36 -30 -8 -33 -50 -4 -68 45 -30 58
-18 61 63 3 67 1 72 -18 72 -16 0 -20 -6 -20 -31z"/>
<path d="M8482 7985 c0 -16 2 -22 5 -12 2 9 2 23 0 30 -3 6 -5 -1 -5 -18z"/>
<path d="M8500 7855 l0 -65 -66 0 c-64 0 -66 -1 -60 -22 4 -13 12 -53 18 -90
l11 -67 44 -7 c24 -3 43 -10 43 -15 0 -5 36 -9 81 -9 70 0 80 2 75 16 -3 9 -6
23 -6 32 0 10 -13 23 -30 30 -16 8 -30 20 -30 28 0 8 -4 14 -9 14 -18 0 -33
73 -29 146 3 71 3 74 -19 74 -22 0 -23 -4 -23 -65z"/>
<path d="M8812 7620 c0 -14 2 -19 5 -12 2 6 2 18 0 25 -3 6 -5 1 -5 -13z"/>
<path d="M3660 2260 c-22 -7 -21 -8 13 -9 23 -1 36 3 32 9 -7 11 -10 11 -45 0z"/>
<path d="M7010 1900 c0 -5 -7 -10 -16 -10 -25 0 -44 -26 -44 -59 0 -29 3 -31
35 -31 l35 0 0 55 c0 30 -2 55 -5 55 -3 0 -5 -4 -5 -10z"/>
<path d="M4215 9595 c28 -8 71 -14 96 -15 25 0 74 -3 108 -6 50 -6 61 -10 61
-25 0 -12 7 -19 20 -19 11 0 28 -4 38 -9 33 -17 98 -30 192 -36 109 -8 194
-34 227 -69 15 -17 38 -26 75 -31 29 -4 70 -15 91 -26 29 -14 59 -19 126 -19
50 0 91 -4 93 -10 2 -5 41 -14 88 -20 162 -18 201 -30 237 -67 34 -35 39 -36
216 -60 20 -3 37 -9 37 -14 0 -5 19 -9 43 -9 23 0 67 -6 97 -14 30 -8 90 -19
133 -25 43 -6 91 -18 108 -26 17 -9 52 -19 80 -22 41 -5 49 -3 49 11 0 9 8 16
20 16 16 0 20 7 20 30 0 28 2 30 40 30 22 0 40 5 40 10 0 6 9 10 20 10 13 0
20 7 20 20 0 15 7 20 25 20 16 0 25 6 25 15 0 9 12 18 30 22 19 3 30 12 30 23
0 14 14 18 92 24 51 4 95 12 99 18 4 6 10 36 13 68 8 68 12 70 123 70 l72 0 7
-70 7 -70 53 0 c42 0 54 3 54 16 0 34 26 44 119 44 54 0 91 4 91 10 0 6 -15
10 -33 10 -48 0 -57 15 -57 97 l0 73 90 0 90 0 0 -85 0 -85 54 0 c30 0 58 -4
61 -10 10 -17 50 -11 75 10 13 11 36 20 52 20 l28 0 0 70 0 69 253 0 c239 0
255 -1 270 -20 9 -10 17 -24 17 -29 0 -6 7 -10 15 -10 10 0 15 -11 15 -35 0
-38 17 -46 44 -20 16 17 133 20 348 8 l117 -6 3 -56 c3 -55 3 -56 32 -54 40 3
46 16 46 106 l0 77 45 0 c35 0 52 6 72 25 15 13 40 29 55 36 15 6 28 15 28 20
0 5 -1066 9 -2492 8 -2145 0 -2486 -2 -2443 -14z m3565 -90 l0 -75 -75 0 -75
0 0 75 0 75 75 0 75 0 0 -75z"/>
<path d="M3896 9415 c-3 -8 -3 -15 0 -15 3 0 12 7 20 15 13 13 13 15 1 15 -8
0 -17 -7 -21 -15z"/>
<path d="M5151 9101 c21 -13 164 -50 244 -63 33 -5 83 -16 110 -23 62 -17 115
-24 115 -14 0 8 -103 46 -160 59 -19 5 -55 16 -79 25 -51 19 -256 33 -230 16z"/>
<path d="M5650 8980 c19 -13 30 -13 30 0 0 6 -10 10 -22 10 -19 0 -20 -2 -8
-10z"/>
<path d="M5692 8958 c3 -9 45 -17 117 -25 75 -8 119 -17 130 -27 10 -9 33 -16
52 -16 19 0 39 -4 45 -9 5 -5 31 -12 57 -16 44 -6 48 -5 45 12 -2 12 -14 19
-36 21 -17 2 -32 7 -32 13 0 5 -10 9 -23 9 -13 0 -27 4 -32 9 -12 11 -213 41
-278 41 -35 0 -47 -4 -45 -12z"/>
<path d="M6240 8825 c0 -11 13 -15 54 -15 36 0 58 -5 66 -16 8 -8 22 -20 32
-25 15 -8 18 -6 18 19 0 23 -6 30 -33 40 -50 18 -137 16 -137 -3z"/>
<path d="M138 2988 c7 -7 12 -31 12 -55 0 -32 4 -43 15 -43 12 0 15 13 15 55
0 53 -1 55 -27 55 -21 0 -24 -3 -15 -12z"/>
<path d="M433 2852 l-193 -2 0 -70 0 -70 -60 0 -60 0 0 -59 c0 -67 -5 -71 -76
-71 l-44 0 0 -380 0 -380 49 0 c34 0 51 -4 55 -15 3 -8 12 -15 21 -15 8 0 15
-9 15 -20 0 -18 7 -20 69 -20 78 0 101 -6 101 -26 0 -8 6 -11 15 -8 8 4 15 12
15 20 0 11 21 14 99 14 112 0 131 4 131 30 0 10 9 22 20 25 13 4 20 15 20 30
0 36 10 55 31 55 12 0 21 9 24 28 4 15 10 35 16 44 5 10 9 61 9 113 0 86 2 95
18 95 11 0 27 9 37 20 18 20 17 20 -38 20 l-57 0 0 86 0 85 108 -2 c127 -2
126 -3 136 122 4 43 11 79 16 79 4 0 11 24 14 53 7 53 19 91 49 157 14 32 14
35 -1 39 -9 2 -19 7 -22 11 -6 10 -264 16 -517 12z"/>
<path d="M0 2775 c0 -32 2 -35 30 -35 28 0 30 3 30 35 0 32 -2 35 -30 35 -28
0 -30 -3 -30 -35z"/>
<path d="M1136 2232 c-4 -13 -5 -26 -2 -29 10 -11 18 4 14 29 l-4 23 -8 -23z"/>
<path d="M1038 2015 c-11 -54 -41 -130 -55 -138 -7 -4 -13 -24 -13 -43 0 -43
-19 -124 -34 -143 -9 -12 -7 -13 9 -7 11 5 50 11 88 13 57 5 67 8 67 24 0 16
-8 19 -45 19 l-45 0 0 66 c0 38 9 96 21 136 11 38 19 77 17 86 -3 11 -6 6 -10
-13z"/>
<path d="M896 1618 c-9 -17 -16 -48 -16 -68 0 -21 -6 -43 -14 -49 -8 -7 -17
-23 -20 -36 -4 -14 -13 -25 -21 -25 -13 0 -15 -25 -15 -157 0 -87 -3 -168 -6
-180 -5 -18 -2 -23 13 -23 18 0 21 9 27 92 3 50 6 113 6 139 0 26 4 58 9 71 5
13 14 43 21 68 7 25 21 69 31 98 31 88 20 141 -15 70z"/>
<path d="M160 1348 c-25 -3 -71 -7 -102 -7 l-58 -1 0 -379 0 -379 110 -7 c61
-4 110 -11 110 -16 0 -5 6 -9 14 -9 8 0 16 -4 18 -10 1 -5 13 -7 26 -4 17 5
22 13 22 40 l0 34 60 0 c65 0 66 1 84 73 6 24 4 27 -19 27 l-25 0 0 153 0 154
35 29 c21 17 35 38 35 51 0 23 32 63 50 63 6 0 10 35 10 84 0 46 2 90 5 98 4
10 -27 13 -162 13 -93 0 -188 -3 -213 -7z"/>
<path d="M360 353 c0 -22 -8 -32 -36 -45 -19 -10 -47 -18 -62 -18 -15 0 -36
-7 -46 -15 -11 -8 -37 -15 -58 -15 -47 0 -49 -16 -3 -36 42 -17 45 -17 45 0 0
20 23 26 101 26 l69 0 0 -64 c0 -36 5 -68 10 -71 6 -4 10 16 10 54 0 33 5 63
10 66 6 3 10 37 10 76 0 67 -1 69 -25 69 -21 0 -25 -5 -25 -27z"/>
</g>
</svg>
